<svg width="1200" height="630" viewBox="0 0 1200 630" fill="none" xmlns="http://www.w3.org/2000/svg">
  <rect width="1200" height="630" fill="#021f3d"/>

  <!-- Subtle grid dots -->
  <pattern id="dots" x="0" y="0" width="40" height="40" patternUnits="userSpaceOnUse">
    <circle cx="20" cy="20" r="1" fill="#378ADD" opacity="0.08"/>
  </pattern>
  <rect width="1200" height="630" fill="url(#dots)"/>

  <!-- Glow behind logo -->
  <circle cx="600" cy="240" r="200" fill="#378ADD" opacity="0.06"/>

  <!-- "rally" wordmark -->
  <text x="600" y="250" text-anchor="middle" font-family="system-ui, -apple-system, sans-serif" font-size="120" font-weight="800" fill="#378ADD">rally</text>

  <!-- Tagline -->
  <text x="600" y="330" text-anchor="middle" font-family="system-ui, -apple-system, sans-serif" font-size="36" font-weight="700" fill="white">SAT &amp; AP prep that hits differently</text>

  <!-- Subtitle -->
  <text x="600" y="385" text-anchor="middle" font-family="system-ui, -apple-system, sans-serif" font-size="22" fill="#85B7EB" opacity="0.7">Challenge your teen to a head-to-head prep game</text>

  <!-- Category pills -->
  <g transform="translate(600, 440)">
    <rect x="-340" y="0" width="140" height="36" rx="18" fill="#378ADD" opacity="0.2"/>
    <text x="-270" y="24" text-anchor="middle" font-family="system-ui, sans-serif" font-size="14" font-weight="700" fill="#378ADD">Algebra</text>

    <rect x="-175" y="0" width="140" height="36" rx="18" fill="#14B8A6" opacity="0.2"/>
    <text x="-105" y="24" text-anchor="middle" font-family="system-ui, sans-serif" font-size="14" font-weight="700" fill="#14B8A6">Reading</text>

    <rect x="-10" y="0" width="140" height="36" rx="18" fill="#A855F7" opacity="0.2"/>
    <text x="60" y="24" text-anchor="middle" font-family="system-ui, sans-serif" font-size="14" font-weight="700" fill="#A855F7">Grammar</text>

    <rect x="155" y="0" width="180" height="36" rx="18" fill="#F97316" opacity="0.2"/>
    <text x="245" y="24" text-anchor="middle" font-family="system-ui, sans-serif" font-size="14" font-weight="700" fill="#F97316">Data &amp; Stats</text>
  </g>

  <!-- AP pills row -->
  <g transform="translate(600, 490)">
    <rect x="-340" y="0" width="140" height="36" rx="18" fill="#22C55E" opacity="0.2"/>
    <text x="-270" y="24" text-anchor="middle" font-family="system-ui, sans-serif" font-size="14" font-weight="700" fill="#22C55E">AP Biology</text>

    <rect x="-175" y="0" width="150" height="36" rx="18" fill="#EC4899" opacity="0.2"/>
    <text x="-100" y="24" text-anchor="middle" font-family="system-ui, sans-serif" font-size="14" font-weight="700" fill="#EC4899">AP Pre Calc</text>

    <rect x="0" y="0" width="130" height="36" rx="18" fill="#F59E0B" opacity="0.2"/>
    <text x="65" y="24" text-anchor="middle" font-family="system-ui, sans-serif" font-size="14" font-weight="700" fill="#F59E0B">APUSH</text>

    <rect x="155" y="0" width="180" height="36" rx="18" fill="#6366F1" opacity="0.2"/>
    <text x="245" y="24" text-anchor="middle" font-family="system-ui, sans-serif" font-size="14" font-weight="700" fill="#6366F1">AP English</text>
  </g>

  <!-- Free badge -->
  <rect x="510" y="555" width="180" height="40" rx="20" fill="#378ADD"/>
  <text x="600" y="581" text-anchor="middle" font-family="system-ui, sans-serif" font-size="16" font-weight="800" fill="white">Try it now</text>
</svg>
